<?xml version='1.0' encoding='utf-8'?>
<!DOCTYPE svg PUBLIC '-//W3C//DTD SVG 1.1//EN' 'http://www.w3.org/Graphics/SVG/1.1/DTD/svg11.dtd'>
<svg xmlns="http://www.w3.org/2000/svg" xmlns:xlink="http://www.w3.org/1999/xlink" version="1.1" width="512" height="512" viewBox="0 0 512 512" xml:space="preserve" style="">
	<g>
		<g fill="#000000">
			<path d="M315.4480956072832,247.03085893694816 c-1.9638853425979612,-30.79176166677475 -27.506225430965422,-55.17131938362121 -58.7898034787178,-55.17131938362121 c-0.02704145050048831,0 -0.03887208509445197,0 -0.05239281034469612,0.013520725250244153 c-0.02704145050048831,0 -0.035491903781890884,-0.013520725250244153 -0.0625333542823792,-0.013520725250244153 c-0.013520725250244153,0 -0.02704145050048831,0 -0.03887208509445197,0.013520725250244153 c-0.013520725250244153,-0.013520725250244153 -0.02704145050048831,-0.013520725250244153 -0.03887208509445197,-0.013520725250244153 c-0.02704145050048831,0 -0.03887208509445197,0.013520725250244153 -0.0625333542823792,0.013520725250244153 c-0.013520725250244153,-0.013520725250244153 -0.02704145050048831,-0.013520725250244153 -0.05408290100097662,-0.013520725250244153 c-4.744084472179413,0.3616794004440309 -16.351627099514012,0.9058885917663573 -27.22905056333542,7.071339305877686 c-1.0968688359260566,1.0867282919883734 -1.3368617091178898,2.6382315144538877 -0.7301191635131842,3.6320048203468325 c0.5425191006660465,0.9177192263603213 5.100693600654601,5.6229316134452825 8.42003164958954,9.295498609542847 c3.9057995066642768,3.179060524463654 7.002045588970184,2.3137341084480285 8.759739871501923,2.029798878192902 c4.8725313620567325,-1.5126311373710641 9.28028779363632,-1.6410780272483834 10.855452285289765,-1.6410780272483834 c17.399483306407927,0.025351359844207805 32.08468101882935,11.504447097301483 37.06368809223175,27.274683011054996 c0.3988613948822025,0.7757516112327576 -0.32280731534957924,1.4991104121208196 -1.4095356073379521,1.4991104121208196 c-12.873420528888703,0 -89.79451656818391,0.025351359844207805 -89.79451656818391,0.025351359844207805 c-2.6686531462669376,0 -4.53789341211319,2.1328944082260133 -4.53789341211319,4.292830266952515 c-0.1352072525024416,0.8923678665161136 -0.2264721479415894,9.190712988853454 -0.1994306974411013,9.552392389297486 c1.9841664304733275,30.790071576118468 27.51974615621567,55.17131938362121 58.80163411331177,55.17131938362121 h0.05408290100097662 h0.0625333542823792 h0.03887208509445197 h0.03887208509445197 h0.0625333542823792 h0.05239281034469612 c14.375911122322083,-0.9836327619552612 21.19880710172653,-3.1300478954315185 27.249331651210788,-6.7874040756225575 c0.6608254466056833,-0.4782956557273867 1.8219177274703982,-2.0044475183486936 0.9041985011100769,-3.464685845375061 c-0.24506314516067526,-1.1256003770828256 -5.298434207439422,-6.089396634578705 -8.634673162937164,-9.748442905426025 c-3.878758056163788,-3.179060524463654 -6.773883350372315,-2.2224692130088806 -8.737768692970276,-2.028108787536621 c-4.3976158876419085,1.2540472669601446 -9.281977884292603,1.6410780272483834 -10.860522557258607,1.6410780272483834 c-17.230474240779877,-0.025351359844207805 -31.817646695137025,-11.310086671829223 -36.930170930385586,-26.862300890922548 c-0.20619106006622326,-0.6320939054489141 0.18760006284713757,-1.913182622909546 1.301369805335999,-1.913182622909546 c12.920743067264558,0 87.72584560489655,-0.03718199443817144 89.7691652083397,-0.03718199443817144 s4.548033956050874,-2.1210637736320495 4.548033956050874,-4.27930954170227 C315.38556225300084,255.72975554482397 315.47513705778374,247.37901761214198 315.4480956072832,247.03085893694816 " id="svg_2"/>
			<path d="M98.8883293647791,162.9167370645231 v38.40562007331848 c-0.02704145050048831,21.74301629304886 -17.6969392619133,39.40108346986771 -39.45854655218125,39.439955554962154 h-37.869861335277555 c-1.2151751818656926,-0.11661625528335588 -1.3875644288063054,-0.32280731534957924 -1.4653085989952093,-1.189823822021485 l-0.10985589265823371,-38.25013173294067 c0.02704145050048831,-21.754846927642824 17.70369962453842,-39.426434829711916 39.45854655218125,-39.451786189556124 h38.21802001047134 C98.69565902996311,161.92127366797385 98.8105851945902,162.34717651335654 98.8883293647791,162.9167370645231 M117.57904193258533,143.9150478159612 c-0.9616615834236152,-1.2929193520545965 -2.631471151828766,-2.0162781529426574 -4.510851961612701,-1.9909267930984496 h-53.63840715837479 c-32.75733710002899,0.01183063459396364 -59.37964511775971,26.629068380355836 -59.39316584300995,59.39823611497879 c0,0.14196761512756365 0,143.27912547683715 0.013520725250244153,144.1596627087593 c-0.0507027196884156,0.9684219460487373 0.7689912486076358,1.9267033481597902 1.40277524471283,2.1328944082260133 c0.6320939054489141,0.2704145050048832 1.1509517369270335,0.2974559555053713 1.6022059421539314,0.2974559555053713 c0.32956767797470143,0 0.5813911857604985,-0.03718199443817144 0.6980074410438543,-0.03718199443817144 c11.641344440460205,-1.2810887174606331 16.17754776191711,-8.854384948253632 16.22994057226181,-13.159045849800108 c0,-2.4573918142318725 0,-14.996174393177032 0,-34.70939180803299 v-38.13182538700104 c0.12168652725219736,-0.9177192263603213 0.1487279777526857,-1.020814756393433 1.3250310745239258,-1.1763030967712413 c0.9684219460487373,0 38.121684843063356,0 38.121684843063356,0.013520725250244153 c32.76240737199784,-0.013520725250244153 59.39823611497879,-26.629068380355836 59.410066749572756,-59.38640548038482 v-53.06377633523941 C118.82801892757664,146.7189082147306 118.55084405994661,145.18092571751538 117.57904193258533,143.9150478159612 " id="svg_3"/>
			<path d="M186.89303992796187,53.42759407870227 c-0.8670165066719056,-1.9774060678482055 -2.876534296989441,-2.7278063192367554 -4.382405071735382,-2.663582874298096 c-1.5008005027770999,0.01183063459396364 -2.8511829371452344,0.4529442958831788 -3.838195880413055,0.7622308859825134 c-15.886852169036866,5.171677408218384 -29.265609804153442,18.923945078372952 -29.22842780971527,40.73287490701675 c0,0 0,0.025351359844207805 0,0.0507027196884156 l0,0 c0,0 0,88.76694144916534 0,149.26542658138274 v55.13244729852677 v0.02704145050048831 v10.339974635124207 c-0.0507027196884156,0.9701120367050173 0.7689912486076358,1.9267033481597902 1.40277524471283,2.1345844988822935 c0.6337839961051948,0.2839352302551272 1.1509517369270335,0.2974559555053713 1.6022059421539314,0.3109766807556156 c0.31773704338073744,0 0.5966020016670229,-0.03887208509445197 0.6980074410438543,-0.03887208509445197 c11.517967822551729,-1.2658779015541084 16.087972957134248,-8.698896607875824 16.218109937667847,-13.028908869266509 l0.01183063459396364,-0.02704145050048831 v-11.00080008172989 c0,-5.895036209106445 0,-13.961838911533354 0,-23.825207981586455 v-22.24666330862045 v-147.0412672777176 c0.09126489543914806,-17.60567436647415 7.083169940471649,-27.107364036083222 14.49759764957428,-31.864969233512877 c1.7441735572814947,-1.3436220717430118 3.4376443948745723,-2.6754135088920594 3.5153885650634766,-5.053371062278748 C187.40344730615863,54.706992705506636 187.22260760593664,54.034336624307045 186.89303992796187,53.42759407870227 " id="svg_4"/>
			<path d="M362.579653738978,214.36478673235837 v-9.449296859264374 c0.05239281034469612,-0.9565913114547737 -0.7757516112327576,-1.913182622909546 -1.396014882087708,-2.1328944082260133 c-0.6473047213554386,-0.2704145050048832 -1.162782371520997,-0.2839352302551272 -1.6140365767478948,-0.2974559555053713 c-0.2974559555053713,0 -0.5847713670730599,0.013520725250244153 -0.841665146827698,0.05239281034469612 c-8.81720295381546,0.9312399516105655 -13.534245975494382,5.700675783634186 -15.253068172931671,9.719711364269257 c-0.5408290100097661,0.7368795261383064 -0.8281444215774538,1.6427681179046631 -0.81462369632721,2.5604873442649843 v0.5949119110107426 l-0.013520725250244153,0.03887208509445197 v203.56972945833206 c-0.16562888431549097,17.451876116752626 -7.1068312096595765,26.914693701267243 -14.473936380386352,31.63173672294617 c-1.7458636479377745,1.331791437149048 -3.4393344855308534,2.702454959392548 -3.5187687463760375,5.068581878185272 c0,0.11492616462707529 0,0.24506314516067526 0,0.3988613948822025 s-0.023661269187927277,0.33632804059982346 -0.023661269187927277,0.530688466072083 c0,0.6591353559494024 0.17745951890945438,1.3943247914314276 0.5678704605102546,2.0416295127868653 c0.7487101607322693,1.7712150077819824 2.6382315144538877,2.54696661901474 4.110300476074219,2.54696661901474 c0.06591353559494019,0 0.1554883403778079,-0.013520725250244153 0.20788115072250374,-0.013520725250244153 c1.4991104121208196,0 2.8427324838638315,-0.4529442958831788 3.799323795318604,-0.7368795261383064 c15.785446729660034,-5.144635957717895 29.084770103931426,-18.731274743556977 29.265609804153442,-40.2427486166954 v-0.42590284538269063 c0,-0.0507027196884156 0,-0.09126489543914806 0,-0.1284468898773195 l0,0 v-0.5560398259162905 c0,0 0,-0.11661625528335588 0,-0.33632804059982346 V214.44253090254725 V214.36478673235837 z" id="svg_5"/>
			<path d="M452.57698118591554,261.0417104775137 h37.86141088199616 c1.2286959071159371,0.13013698053359993 1.3824941568374638,0.34984876585006763 1.4720689616203313,1.189823822021485 l0.10309553003311168,38.27548309278488 c-0.035491903781890884,21.741326202392578 -17.6969392619133,39.41291410446167 -39.436575373649596,39.43826546430588 h-4.6680303926467905 h-33.55674998044968 c-1.0225048470497136,-0.0507027196884156 -1.152641827583314,-0.4766055650711063 -1.2286959071159371,-1.046166116237641 v-38.39209934806824 C413.1505463562037,278.7521704646772 430.8204441676165,261.08227265326445 452.57698118591554,261.0417104775137 M511.9481758503939,156.3507348648733 c0.0625333542823792,-0.9836327619552612 -0.7622308859825134,-1.9267033481597902 -1.4095356073379521,-2.1464151334762573 c-0.6202632708549503,-0.2839352302551272 -1.1391211023330698,-0.2974559555053713 -1.6038960328102116,-0.2974559555053713 c-0.2839352302551272,0 -0.5678704605102546,0.013520725250244153 -0.838284965515137,0.05239281034469612 c-11.49092637205124,1.2540472669601446 -16.02881978416443,8.840864223003388 -16.06938195991516,13.159045849800108 c0,2.443871088981629 -0.013520725250244153,14.982653667926789 -0.013520725250244153,34.707701717376715 v38.13351547765732 c-0.11492616462707529,0.890677775859833 -0.14196761512756365,1.007294031143189 -1.3030598959922792,1.1509517369270335 h-38.13182538700104 c-32.75902719068527,0.01183063459396364 -59.38809557104111,26.627378289699557 -59.39992620563507,59.39823611497879 v53.06377633523941 c0.013520725250244153,1.5244617719650264 0.2974559555053713,3.0624442691802978 1.2675679922103888,4.34184289598465 c0.9447606768608097,1.2540472669601446 2.570627888202667,1.9774060678482055 4.40606634092331,1.9774060678482055 h53.72629187250138 c32.74212628412247,-0.01183063459396364 59.371194664478296,-26.629068380355836 59.38471538972855,-59.38471538972855 C511.96000648498784,300.3532191425985 511.9481758503939,157.2295820061391 511.9481758503939,156.3507348648733 " id="svg_6"/>
		</g>
	</g>
</svg>
