<?xml version="1.0" encoding="utf-8"?>
<!-- Generator: Adobe Illustrator 25.0.1, SVG Export Plug-In . SVG Version: 6.00 Build 0)  -->
<svg version="1.1" id="Lager_1" xmlns="http://www.w3.org/2000/svg" xmlns:xlink="http://www.w3.org/1999/xlink" x="0px" y="0px"
	 viewBox="0 0 512 512" style="enable-background:new 0 0 512 512;" xml:space="preserve">
<path d="M402.2,0H109.8C49.1,0,0,49.1,0,109.8v292.5C0,462.9,49.1,512,109.8,512h292.5c60.6,0,109.8-49.1,109.8-109.8V109.8
	C512,49.1,462.9,0,402.2,0z M320,27.4v73.1H192V27.4H320z M402.3,416v68.6H109.7v-73.1h292.6V416z M484.6,402.2
	c0,35.8-22.9,66.2-54.9,77.5V416c0-21.3-9.7-32-38.6-32H120.9c-28.9,0-38.6,10.7-38.6,32v63.8c-31.9-11.3-54.9-41.8-54.9-77.5V109.8
	c0-45.4,36.9-82.3,82.3-82.3h54.8V96c0,21.3,9.1,32,27.4,32h128c18.3,0,27.4-10.7,27.4-32V27.4h54.8c45.4,0,82.3,36.9,82.3,82.3
	V402.2z"/>
</svg>
